<svg width="792" height="866" viewBox="0 0 792 866" fill="none" xmlns="http://www.w3.org/2000/svg">
<path d="M239.966 -87.2639C259.981 -113.383 290.812 -128.952 323.713 -129.555L707.062 -136.577C739.885 -137.178 771.199 -122.818 792.159 -97.5527L1018.07 174.75C1040.38 201.638 1048.3 237.657 1039.33 271.425L946.094 622.568C938.187 652.346 917.939 677.329 890.444 691.231L568.288 854.125C538.958 868.956 504.469 869.623 474.587 855.938L149.624 707.119C119.742 693.434 97.7171 666.886 89.7849 634.99L3.52569 288.137C-4.40644 256.241 2.61728 222.47 22.6086 196.381L239.966 -87.2639Z" fill="url(#paint0_linear_1_6)"/>
<defs>
<linearGradient id="paint0_linear_1_6" x1="271.643" y1="-128.601" x2="751.531" y2="820.48" gradientUnits="userSpaceOnUse">
<stop stop-color="#2ECA8B"/>
<stop offset="1" stop-color="#006660"/>
</linearGradient>
</defs>
</svg>
